# xmcd
#
# Track frame offsets:
#	150
#	20711
#	39294
#	58569
#	79805
#	95938
#	116185
#	134149
#	148052
#	164576
#	181645
#	200627
#	217950
#	228538
#	248826
#	264113
#	280505
#	298228
#	313780
#
# Disc length: 4465 seconds
#
# Revision: 0
# Processed by: cddbd v1.5.2PL0 Copyright (c) Steve Scherf et al.
# Submitted via: EZCDAudioConverter 3.1.0.1
#
DISCID=25116f13
DTITLE=Nu Urban Traxx Volume 235 US
DYEAR=2017
DGENRE=blues
TTITLE0=Nicki Minaj, Drake and Lil Wayne - No Frauds
TTITLE1=Future ft. Rihanna - Selfish
TTITLE2=Tee Grizzley - First Day Out
TTITLE3=DJ Khaled ft. Beyonce and Jay-Z - Shining
TTITLE4=Missy Elliot ft. Lamb - I'm Better
TTITLE5=Desiigner - Outlet
TTITLE6=Wale ft. G-Eazy - Fashion Week
TTITLE7=Omarion - Distance
TTITLE8=DJ E Feezy ft. K Michelle, Rick Ross and Fabulous - Got Me Crazy (No B
TTITLE8=etter Love)
TTITLE9=Future - Draco
TTITLE10=PnB Rock - Selfish
TTITLE11=The Weeknd ft. Daft Punk - I Feel It Coming
TTITLE12=Ugly God - Water
TTITLE13=Kodak Black - Tunnel Vision
TTITLE14=Belly ft. Future - Frozen Water
TTITLE15=Lil Uzi Vert ft. Quavo, Travis Scott - Go Off
TTITLE16=21 Savage and Metro Boomin - No Heart
TTITLE17=Bruno Mars - That's What I Like
TTITLE18=Meek Mill - Litty
EXTD=
EXTT0=
EXTT1=
EXTT2=
EXTT3=
EXTT4=
EXTT5=
EXTT6=
EXTT7=
EXTT8=
EXTT9=
EXTT10=
EXTT11=
EXTT12=
EXTT13=
EXTT14=
EXTT15=
EXTT16=
EXTT17=
EXTT18=
PLAYORDER=
